<svg xmlns="http://www.w3.org/2000/svg"  viewBox="0 0 128 128" width="64px" height="64px" ><path d="M 24 20 A 12 12 0 0 0 12 32 L 12 50 A 2 2 0 0 0 14 52 L 32 52 L 32 110 A 2 2 0 0 0 34 112 L 98 112 A 2 2 0 0 0 100 110 L 100 93 A 2 2 0 0 0 98 91 A 2 2 0 0 0 96 93 L 96 108 L 36 108 L 36 32 A 11.93 11.93 0 0 0 32.919922 24 L 88 24 A 8 8 0 0 1 96 32 L 96 42 A 2 2 0 0 0 100 42 L 100 32 A 12 12 0 0 0 88 20 L 24 20 z M 24.234375 24.003906 A 8 8 0 0 1 32 32 L 32 48 L 16 48 L 16 32 A 8 8 0 0 1 24.234375 24.003906 z M 46 32 A 2 2 0 0 0 46 36 L 70 36 A 2 2 0 0 0 70 32 L 46 32 z M 46 44 A 2 2 0 0 0 46 48 L 54 48 A 2 2 0 0 0 54 44 L 46 44 z M 103.81445 45.007812 A 2 2 0 0 0 102.43945 45.589844 L 71.320312 76.710938 A 2.1 2.1 0 0 0 70.810547 77.570312 L 65.160156 97.369141 A 2 2 0 0 0 65.669922 99.369141 A 2 2 0 0 0 67.080078 99.960938 A 2.09 2.09 0 0 0 67.630859 99.880859 L 87.429688 94.230469 A 2 2 0 0 0 88.289062 93.720703 L 119.41016 62.599609 A 2 2 0 0 0 119.41016 59.779297 L 119.41016 59.740234 L 105.25977 45.589844 A 2 2 0 0 0 103.81445 45.007812 z M 103.84961 49.839844 L 115.16016 61.150391 L 86.880859 89.439453 L 75.560547 78.119141 L 103.84961 49.839844 z M 46 56 A 2 2 0 0 0 46 60 L 70 60 A 2 2 0 0 0 72 58 A 2 2 0 0 0 70 56 L 46 56 z M 73.730469 81.939453 L 83.060547 91.269531 L 70 95 L 73.730469 81.939453 z M 46 96 A 2 2 0 0 0 46 100 L 59 100 A 2 2 0 0 0 59 96 L 46 96 z"/></svg>