<svg xmlns="http://www.w3.org/2000/svg"  viewBox="0 0 50 50" width="50px" height="50px"><path d="M 24.998047 2.0097656 C 24.395812 2.0109856 23.793461 2.2496456 23.357422 2.7246094 L 21.869141 4.34375 C 21.794591 4.424866 21.686164 4.4418789 21.589844 4.3886719 L 19.675781 3.3085938 C 18.551809 2.6740065 17.088926 3.1494587 16.552734 4.3222656 L 15.638672 6.3203125 C 15.591212 6.4218548 15.496843 6.4714401 15.386719 6.4492188 L 13.232422 6.015625 C 11.968707 5.7610894 10.724839 6.6626734 10.576172 7.9433594 L 10.324219 10.126953 C 10.311179 10.238973 10.234549 10.315566 10.125 10.328125 A 1.0001 1.0001 0 0 0 10.123047 10.328125 L 7.9394531 10.580078 C 6.6579153 10.728124 5.7553136 11.973028 6.0097656 13.236328 A 1.0001 1.0001 0 0 0 6.0117188 13.236328 L 6.4453125 15.390625 C 6.4676705 15.501427 6.4192305 15.597379 6.3164062 15.644531 L 4.3183594 16.558594 C 3.1462544 17.095483 2.6724768 18.554799 3.3046875 19.677734 A 1.0001 1.0001 0 0 0 3.3046875 19.679688 L 4.3847656 21.59375 L 4.3828125 21.59375 C 4.4373555 21.69056 4.4215127 21.797989 4.3398438 21.873047 L 2.7207031 23.361328 C 1.7708616 24.234107 1.7708616 25.769799 2.7207031 26.642578 L 4.3398438 28.130859 C 4.4215127 28.205919 4.4373555 28.315296 4.3828125 28.412109 L 3.3046875 30.324219 C 2.6701004 31.448191 3.1455525 32.911074 4.3183594 33.447266 L 6.3164062 34.361328 C 6.4179486 34.408788 6.4675339 34.503157 6.4453125 34.613281 L 6.0117188 36.767578 A 1.0001 1.0001 0 0 0 6.0097656 36.767578 C 5.75523 38.031293 6.6587671 39.275161 7.9394531 39.423828 A 1.0001 1.0001 0 0 0 7.9433594 39.423828 L 10.125 39.669922 C 10.23702 39.682962 10.313613 39.761542 10.326172 39.871094 L 10.578125 42.054688 C 10.725209 43.337185 11.97048 44.238947 13.234375 43.984375 L 15.388672 43.548828 C 15.499473 43.526468 15.595425 43.576867 15.642578 43.679688 L 16.554688 45.675781 C 17.091038 46.848939 18.552386 47.321923 19.675781 46.689453 A 1.0001 1.0001 0 0 0 19.677734 46.689453 L 21.591797 45.611328 C 21.688607 45.556788 21.796036 45.57458 21.871094 45.65625 L 23.359375 47.273438 C 24.232154 48.223278 25.767846 48.223278 26.640625 47.273438 L 28.128906 45.65625 C 28.203966 45.57458 28.311389 45.556778 28.408203 45.611328 L 30.322266 46.689453 C 31.446238 47.32404 32.909122 46.848588 33.445312 45.675781 L 34.357422 43.679688 C 34.404572 43.576862 34.500527 43.52647 34.611328 43.548828 L 36.765625 43.984375 C 38.02934 44.238911 39.273208 43.335374 39.421875 42.054688 L 39.673828 39.873047 L 39.673828 39.871094 C 39.687438 39.75996 39.764038 39.682419 39.873047 39.669922 A 1.0001 1.0001 0 0 0 39.875 39.669922 L 42.056641 39.417969 C 43.339139 39.270885 44.242853 38.027567 43.988281 36.763672 A 1.0001 1.0001 0 0 0 43.986328 36.763672 L 43.552734 34.609375 C 43.530374 34.498573 43.578814 34.402621 43.681641 34.355469 L 45.679688 33.441406 C 46.852845 32.905054 47.325829 31.443707 46.693359 30.320312 L 45.613281 28.40625 C 45.558741 28.30944 45.576533 28.200058 45.658203 28.125 L 47.277344 26.638672 C 48.227185 25.765893 48.227185 24.228248 47.277344 23.355469 L 45.658203 21.869141 C 45.576533 21.794081 45.558731 21.684704 45.613281 21.587891 L 46.693359 19.673828 C 47.327947 18.549856 46.852494 17.088926 45.679688 16.552734 L 43.681641 15.638672 C 43.578816 15.591522 43.530376 15.495567 43.552734 15.384766 L 43.986328 13.230469 A 1.0001 1.0001 0 0 0 43.988281 13.230469 C 44.242817 11.966753 43.33928 10.724839 42.058594 10.576172 L 39.875 10.324219 C 39.76298 10.311179 39.686387 10.232599 39.673828 10.123047 L 39.421875 7.9394531 C 39.274791 6.6569546 38.02952 5.7551939 36.765625 6.0097656 L 34.611328 6.4453125 C 34.500527 6.4676707 34.404575 6.4172778 34.357422 6.3144531 L 33.445312 4.3183594 C 32.908961 3.1452019 31.447614 2.6702648 30.324219 3.3027344 A 1.0001 1.0001 0 0 0 30.322266 3.3046875 L 28.408203 4.3828125 C 28.311393 4.4373555 28.203964 4.4195596 28.128906 4.3378906 L 26.640625 2.7207031 A 1.0001 1.0001 0 0 0 26.640625 2.71875 C 26.204008 2.2444747 25.601147 2.0085424 24.998047 2.0097656 z M 25 3.9921875 C 25.058777 3.9920947 25.117696 4.0204166 25.167969 4.0742188 L 26.65625 5.6914062 C 27.353192 6.4497373 28.493439 6.6304571 29.390625 6.125 L 31.304688 5.046875 C 31.435292 4.973344 31.563352 5.015548 31.625 5.1503906 L 32.539062 7.1484375 C 32.967911 8.0836128 33.998615 8.6079387 35.007812 8.4042969 L 37.162109 7.9707031 C 37.308215 7.9412751 37.416677 8.0204671 37.433594 8.1679688 A 1.0001 1.0001 0 0 0 37.435547 8.1679688 L 37.6875 10.351562 L 37.685547 10.351562 C 37.802988 11.376013 38.622551 12.191586 39.644531 12.310547 L 41.828125 12.5625 C 41.977439 12.57983 42.056808 12.689652 42.027344 12.835938 L 41.591797 14.988281 C 41.388155 15.99748 41.912481 17.028184 42.847656 17.457031 A 1.0001 1.0001 0 0 0 42.849609 17.457031 L 44.847656 18.371094 C 44.982849 18.432904 45.024585 18.561378 44.951172 18.691406 L 43.871094 20.605469 C 43.365637 21.502655 43.546356 22.644855 44.304688 23.341797 L 45.923828 24.828125 C 46.033987 24.929346 46.033987 25.064794 45.923828 25.166016 L 44.304688 26.652344 C 43.546355 27.349286 43.365637 28.491486 43.871094 29.388672 L 44.951172 31.302734 C 45.023032 31.432599 44.981762 31.561737 44.847656 31.623047 L 42.849609 32.537109 A 1.0001 1.0001 0 0 0 42.847656 32.537109 C 41.912481 32.965957 41.388155 33.994708 41.591797 35.003906 A 1.0001 1.0001 0 0 0 41.591797 35.005859 L 42.027344 37.158203 C 42.056774 37.304308 41.975624 37.414724 41.828125 37.431641 L 39.644531 37.683594 C 38.620944 37.801804 37.806389 38.619257 37.6875 39.640625 A 1.0001 1.0001 0 0 0 37.6875 39.642578 L 37.435547 41.824219 C 37.418217 41.973533 37.308394 42.052902 37.162109 42.023438 L 35.007812 41.587891 C 33.998615 41.384249 32.967911 41.910528 32.539062 42.845703 L 31.625 44.84375 C 31.56319 44.978943 31.434715 45.020678 31.304688 44.947266 L 29.390625 43.869141 C 28.493439 43.363684 27.353192 43.544403 26.65625 44.302734 L 25.167969 45.919922 C 25.066748 46.03008 24.933252 46.03008 24.832031 45.919922 L 23.34375 44.302734 C 22.646808 43.544403 21.506561 43.363684 20.609375 43.869141 L 18.695312 44.947266 C 18.564708 45.020796 18.436648 44.978596 18.375 44.84375 L 17.460938 42.845703 C 17.03209 41.910528 16.001386 41.384249 14.992188 41.587891 L 12.837891 42.023438 C 12.691785 42.052867 12.583323 41.973668 12.566406 41.826172 A 1.0001 1.0001 0 0 0 12.564453 41.826172 L 12.3125 39.642578 L 12.314453 39.642578 C 12.197012 38.618127 11.377449 37.802554 10.355469 37.683594 A 1.0001 1.0001 0 0 0 10.351562 37.683594 L 8.1679688 37.435547 C 8.0209842 37.416881 7.9414764 37.309168 7.9707031 37.164062 L 8.40625 35.009766 C 8.6098918 34.000567 8.085566 32.971816 7.1503906 32.542969 A 1.0001 1.0001 0 0 0 7.1484375 32.541016 L 5.1503906 31.626953 C 5.0151975 31.565145 4.9734621 31.438622 5.046875 31.308594 A 1.0001 1.0001 0 0 0 5.046875 31.306641 L 6.1269531 29.392578 C 6.6324102 28.495392 6.4516904 27.355145 5.6933594 26.658203 L 4.0742188 25.169922 C 3.9640601 25.068701 3.9640601 24.935206 4.0742188 24.833984 L 5.6933594 23.345703 C 6.4516904 22.648761 6.6324102 21.508514 6.1269531 20.611328 L 5.046875 18.697266 C 4.973344 18.566661 5.015548 18.438601 5.1503906 18.376953 L 7.1484375 17.462891 A 1.0001 1.0001 0 0 0 7.1503906 17.462891 C 8.0855691 17.034043 8.6098918 16.003339 8.40625 14.994141 L 7.9707031 12.839844 C 7.9412751 12.693739 8.020467 12.585276 8.1679688 12.568359 A 1.0001 1.0001 0 0 0 8.1699219 12.568359 L 10.353516 12.314453 C 11.376685 12.195871 12.191692 11.378493 12.310547 10.357422 L 12.5625 8.1738281 C 12.57983 8.0245141 12.689653 7.945145 12.835938 7.9746094 L 14.990234 8.4101562 C 15.999433 8.6137981 17.028184 8.0894722 17.457031 7.1542969 A 1.0001 1.0001 0 0 0 17.458984 7.1523438 L 18.373047 5.1542969 C 18.434857 5.0191038 18.561378 4.9773685 18.691406 5.0507812 A 1.0001 1.0001 0 0 0 18.693359 5.0507812 L 20.607422 6.1308594 C 21.504608 6.6363164 22.644855 6.4555967 23.341797 5.6972656 L 24.830078 4.078125 C 24.882587 4.020784 24.941223 3.9922803 25 3.9921875 z M 39 16 C 34.852 17.058 26.555359 21.287812 23.443359 27.632812 C 21.369359 25.517813 18.259 22.345703 11 22.345703 C 11 22.345703 17.877234 25.851109 22.240234 33.662109 C 22.793234 34.652109 24.165922 34.595172 24.669922 33.576172 C 27.045922 28.779172 31.222 21.288 39 16 z"/></svg>