<svg xmlns="http://www.w3.org/2000/svg" xmlns:xlink="http://www.w3.org/1999/xlink" width="500" zoomAndPan="magnify" viewBox="0 0 375 374.999991" height="500" preserveAspectRatio="xMidYMid meet" version="1.0"><defs><g/><clipPath id="85343be3e7"><path d="M 8.652344 8.652344 L 366.347656 8.652344 L 366.347656 366.347656 L 8.652344 366.347656 Z M 8.652344 8.652344 " clip-rule="nonzero"/></clipPath><clipPath id="7a08b8b262"><path d="M 187.5 8.652344 C 88.722656 8.652344 8.652344 88.722656 8.652344 187.5 C 8.652344 286.277344 88.722656 366.347656 187.5 366.347656 C 286.277344 366.347656 366.347656 286.277344 366.347656 187.5 C 366.347656 88.722656 286.277344 8.652344 187.5 8.652344 Z M 187.5 8.652344 " clip-rule="nonzero"/></clipPath></defs><g clip-path="url(#85343be3e7)"><g clip-path="url(#7a08b8b262)"><path fill="#023e7d" d="M 8.652344 8.652344 L 366.347656 8.652344 L 366.347656 366.347656 L 8.652344 366.347656 Z M 8.652344 8.652344 " fill-opacity="1" fill-rule="nonzero"/></g></g><g fill="#f8f9f9" fill-opacity="1"><g transform="translate(32.398431, 293.249981)"><g><path d="M 28.203125 -210 L 155.40625 -210 L 155.40625 -186.59375 L 53.40625 -186.59375 L 53.40625 -117 L 153.59375 -117 L 153.59375 -93.59375 L 53.40625 -93.59375 L 53.40625 -23.40625 L 157.203125 -23.40625 L 157.203125 0 L 28.203125 0 Z M 28.203125 -210 "/></g></g></g><g fill="#f8f9f9" fill-opacity="1"><g transform="translate(158.998138, 293.249981)"><g><path d="M 157.5 0 L 132.296875 0 L 132.296875 -70.203125 C 132.296875 -75.398438 131.09375 -79.398438 128.6875 -82.203125 C 126.289062 -85.003906 122.09375 -86.40625 116.09375 -86.40625 L 50.703125 -86.40625 L 50.703125 0 L 25.5 0 L 25.5 -210 L 100.5 -210 C 111.300781 -210 120.703125 -208.445312 128.703125 -205.34375 C 136.703125 -202.25 143.347656 -198.097656 148.640625 -192.890625 C 153.941406 -187.691406 157.941406 -181.644531 160.640625 -174.75 C 163.347656 -167.851562 164.703125 -160.601562 164.703125 -153 L 164.703125 -144 C 164.703125 -136.195312 162.550781 -128.394531 158.25 -120.59375 C 153.945312 -112.800781 147.296875 -106.800781 138.296875 -102.59375 L 138.296875 -99 C 144.296875 -98 148.992188 -95.597656 152.390625 -91.796875 C 155.796875 -87.992188 157.5 -82.59375 157.5 -75.59375 Z M 50.703125 -109.796875 L 97.5 -109.796875 C 111.695312 -109.796875 122.242188 -112.84375 129.140625 -118.9375 C 136.046875 -125.039062 139.5 -133.992188 139.5 -145.796875 L 139.5 -151.203125 C 139.5 -161.796875 136.046875 -170.34375 129.140625 -176.84375 C 122.242188 -183.34375 111.695312 -186.59375 97.5 -186.59375 L 50.703125 -186.59375 Z M 50.703125 -109.796875 "/></g></g></g></svg>