<svg xmlns="http://www.w3.org/2000/svg" xmlns:xlink="http://www.w3.org/1999/xlink" zoomAndPan="magnify" preserveAspectRatio="xMidYMid meet" version="1.0" viewBox="13.9 18.54 233.47 43.66"><defs><g></g></defs><g fill="#fff" fill-opacity="1"><g transform="translate(8.747121, 56.962923)"><g><path d="M 5.15625 -38.421875 L 28.4375 -38.421875 L 28.4375 -34.140625 L 9.765625 -34.140625 L 9.765625 -21.40625 L 28.109375 -21.40625 L 28.109375 -17.125 L 9.765625 -17.125 L 9.765625 -4.28125 L 28.765625 -4.28125 L 28.765625 0 L 5.15625 0 Z M 5.15625 -38.421875 "></path></g></g></g><g fill="#fff" fill-opacity="1"><g transform="translate(31.910571, 56.962923)"><g><path d="M 28.8125 0 L 24.203125 0 L 24.203125 -12.84375 C 24.203125 -13.789062 23.984375 -14.519531 23.546875 -15.03125 C 23.109375 -15.550781 22.34375 -15.8125 21.25 -15.8125 L 9.28125 -15.8125 L 9.28125 0 L 4.671875 0 L 4.671875 -38.421875 L 18.390625 -38.421875 C 20.367188 -38.421875 22.085938 -38.132812 23.546875 -37.5625 C 25.015625 -37 26.234375 -36.242188 27.203125 -35.296875 C 28.171875 -34.347656 28.898438 -33.238281 29.390625 -31.96875 C 29.890625 -30.707031 30.140625 -29.382812 30.140625 -28 L 30.140625 -26.34375 C 30.140625 -24.914062 29.742188 -23.488281 28.953125 -22.0625 C 28.171875 -20.632812 26.953125 -19.535156 25.296875 -18.765625 L 25.296875 -18.109375 C 26.398438 -17.929688 27.257812 -17.492188 27.875 -16.796875 C 28.5 -16.097656 28.8125 -15.109375 28.8125 -13.828125 Z M 9.28125 -20.09375 L 17.84375 -20.09375 C 20.4375 -20.09375 22.363281 -20.648438 23.625 -21.765625 C 24.894531 -22.878906 25.53125 -24.515625 25.53125 -26.671875 L 25.53125 -27.671875 C 25.53125 -29.609375 24.894531 -31.171875 23.625 -32.359375 C 22.363281 -33.546875 20.4375 -34.140625 17.84375 -34.140625 L 9.28125 -34.140625 Z M 9.28125 -20.09375 "></path></g></g></g><g fill="#fff" fill-opacity="1"><g transform="translate(69.459387, 53.220052)"><g><path d="M 4.21875 -31.453125 L 23.265625 -31.453125 L 23.265625 -27.9375 L 8 -27.9375 L 8 -17.515625 L 23 -17.515625 L 23 -14.015625 L 8 -14.015625 L 8 -3.5 L 23.546875 -3.5 L 23.546875 0 L 4.21875 0 Z M 4.21875 -31.453125 "></path></g></g></g><g fill="#fff" fill-opacity="1"><g transform="translate(91.692016, 53.220052)"><g><path d="M 20.078125 -3.78125 L 19.546875 -3.78125 C 18.828125 -2.28125 17.828125 -1.171875 16.546875 -0.453125 C 15.273438 0.265625 13.9375 0.625 12.53125 0.625 C 11.0625 0.625 9.695312 0.378906 8.4375 -0.109375 C 7.1875 -0.609375 6.085938 -1.34375 5.140625 -2.3125 C 4.203125 -3.289062 3.460938 -4.484375 2.921875 -5.890625 C 2.378906 -7.296875 2.109375 -8.925781 2.109375 -10.78125 L 2.109375 -11.5 C 2.109375 -13.320312 2.378906 -14.9375 2.921875 -16.34375 C 3.460938 -17.757812 4.203125 -18.953125 5.140625 -19.921875 C 6.085938 -20.898438 7.1875 -21.640625 8.4375 -22.140625 C 9.695312 -22.648438 11.03125 -22.90625 12.4375 -22.90625 C 13.96875 -22.90625 15.351562 -22.566406 16.59375 -21.890625 C 17.84375 -21.222656 18.828125 -20.1875 19.546875 -18.78125 L 20.078125 -18.78125 L 20.078125 -22.28125 L 23.578125 -22.28125 L 23.578125 -4.578125 C 23.578125 -3.679688 23.984375 -3.234375 24.796875 -3.234375 L 25.921875 -3.234375 L 25.921875 0 L 23.546875 0 C 22.523438 0 21.691406 -0.328125 21.046875 -0.984375 C 20.398438 -1.648438 20.078125 -2.488281 20.078125 -3.5 Z M 12.890625 -2.703125 C 13.941406 -2.703125 14.90625 -2.894531 15.78125 -3.28125 C 16.664062 -3.664062 17.421875 -4.21875 18.046875 -4.9375 C 18.679688 -5.65625 19.175781 -6.515625 19.53125 -7.515625 C 19.894531 -8.523438 20.078125 -9.644531 20.078125 -10.875 L 20.078125 -11.40625 C 20.078125 -12.601562 19.894531 -13.703125 19.53125 -14.703125 C 19.175781 -15.710938 18.675781 -16.578125 18.03125 -17.296875 C 17.394531 -18.015625 16.632812 -18.578125 15.75 -18.984375 C 14.863281 -19.390625 13.910156 -19.59375 12.890625 -19.59375 C 11.847656 -19.59375 10.890625 -19.394531 10.015625 -19 C 9.148438 -18.613281 8.394531 -18.066406 7.75 -17.359375 C 7.101562 -16.660156 6.597656 -15.804688 6.234375 -14.796875 C 5.878906 -13.796875 5.703125 -12.695312 5.703125 -11.5 L 5.703125 -10.78125 C 5.703125 -8.238281 6.367188 -6.253906 7.703125 -4.828125 C 9.035156 -3.410156 10.765625 -2.703125 12.890625 -2.703125 Z M 12.890625 -2.703125 "></path></g></g></g><g fill="#fff" fill-opacity="1"><g transform="translate(113.924645, 53.220052)"><g><path d="M 8.53125 -16.53125 C 8.53125 -15.457031 8.988281 -14.632812 9.90625 -14.0625 C 10.820312 -13.488281 12.492188 -13.113281 14.921875 -12.9375 C 17.523438 -12.726562 19.503906 -12.109375 20.859375 -11.078125 C 22.222656 -10.046875 22.90625 -8.539062 22.90625 -6.5625 L 22.90625 -6.296875 C 22.90625 -5.210938 22.6875 -4.242188 22.25 -3.390625 C 21.820312 -2.535156 21.222656 -1.804688 20.453125 -1.203125 C 19.691406 -0.609375 18.765625 -0.15625 17.671875 0.15625 C 16.578125 0.46875 15.390625 0.625 14.109375 0.625 C 12.367188 0.625 10.875 0.394531 9.625 -0.0625 C 8.382812 -0.53125 7.351562 -1.144531 6.53125 -1.90625 C 5.707031 -2.675781 5.085938 -3.546875 4.671875 -4.515625 C 4.253906 -5.484375 4.015625 -6.460938 3.953125 -7.453125 L 7.28125 -8.265625 C 7.425781 -6.554688 8.082031 -5.1875 9.25 -4.15625 C 10.414062 -3.125 11.972656 -2.609375 13.921875 -2.609375 C 15.566406 -2.609375 16.890625 -2.925781 17.890625 -3.5625 C 18.898438 -4.207031 19.40625 -5.117188 19.40625 -6.296875 C 19.40625 -7.546875 18.910156 -8.441406 17.921875 -8.984375 C 16.929688 -9.523438 15.332031 -9.867188 13.125 -10.015625 C 10.539062 -10.191406 8.5625 -10.789062 7.1875 -11.8125 C 5.8125 -12.832031 5.125 -14.316406 5.125 -16.265625 L 5.125 -16.53125 C 5.125 -17.582031 5.347656 -18.503906 5.796875 -19.296875 C 6.242188 -20.085938 6.847656 -20.753906 7.609375 -21.296875 C 8.378906 -21.835938 9.242188 -22.238281 10.203125 -22.5 C 11.160156 -22.769531 12.160156 -22.90625 13.203125 -22.90625 C 14.671875 -22.90625 15.957031 -22.703125 17.0625 -22.296875 C 18.175781 -21.898438 19.109375 -21.378906 19.859375 -20.734375 C 20.609375 -20.085938 21.179688 -19.34375 21.578125 -18.5 C 21.984375 -17.664062 22.25 -16.832031 22.375 -16 L 19.046875 -15.1875 C 18.898438 -16.625 18.320312 -17.742188 17.3125 -18.546875 C 16.3125 -19.359375 15.003906 -19.765625 13.390625 -19.765625 C 12.753906 -19.765625 12.144531 -19.695312 11.5625 -19.5625 C 10.976562 -19.425781 10.460938 -19.222656 10.015625 -18.953125 C 9.566406 -18.679688 9.207031 -18.34375 8.9375 -17.9375 C 8.664062 -17.539062 8.53125 -17.070312 8.53125 -16.53125 Z M 8.53125 -16.53125 "></path></g></g></g><g fill="#fff" fill-opacity="1"><g transform="translate(136.157276, 53.220052)"><g><path d="M 20.078125 -4.046875 L 19.546875 -4.046875 C 18.828125 -2.609375 17.878906 -1.46875 16.703125 -0.625 C 15.535156 0.207031 14.054688 0.625 12.265625 0.625 C 11.035156 0.625 9.90625 0.421875 8.875 0.015625 C 7.84375 -0.378906 6.957031 -0.984375 6.21875 -1.796875 C 5.488281 -2.609375 4.921875 -3.613281 4.515625 -4.8125 C 4.109375 -6.007812 3.90625 -7.398438 3.90625 -8.984375 L 3.90625 -22.28125 L 7.40625 -22.28125 L 7.40625 -9.4375 C 7.40625 -7.101562 7.882812 -5.394531 8.84375 -4.3125 C 9.800781 -3.238281 11.269531 -2.703125 13.25 -2.703125 C 15.375 -2.703125 17.039062 -3.425781 18.25 -4.875 C 19.46875 -6.320312 20.078125 -8.257812 20.078125 -10.6875 L 20.078125 -22.28125 L 23.578125 -22.28125 L 23.578125 5.484375 C 23.578125 6.503906 23.253906 7.34375 22.609375 8 C 21.972656 8.65625 21.144531 8.984375 20.125 8.984375 L 7.40625 8.984375 L 7.40625 5.75 L 18.875 5.75 C 19.675781 5.75 20.078125 5.300781 20.078125 4.40625 Z M 20.078125 -4.046875 "></path></g></g></g><g fill="#fff" fill-opacity="1"><g transform="translate(158.389902, 53.220052)"><g><path d="M 2.65625 -22.28125 L 10.734375 -22.28125 L 10.734375 -19.3125 L 11.28125 -19.3125 C 11.84375 -20.539062 12.648438 -21.445312 13.703125 -22.03125 C 14.753906 -22.613281 15.953125 -22.90625 17.296875 -22.90625 C 19.546875 -22.90625 21.359375 -22.171875 22.734375 -20.703125 C 24.109375 -19.242188 24.84375 -17.101562 24.9375 -14.28125 L 21.25 -13.75 C 21.25 -15.8125 20.753906 -17.300781 19.765625 -18.21875 C 18.773438 -19.132812 17.5625 -19.59375 16.125 -19.59375 C 15.195312 -19.59375 14.394531 -19.410156 13.71875 -19.046875 C 13.050781 -18.691406 12.488281 -18.195312 12.03125 -17.5625 C 11.582031 -16.9375 11.253906 -16.203125 11.046875 -15.359375 C 10.835938 -14.523438 10.734375 -13.628906 10.734375 -12.671875 L 10.734375 -3.234375 L 16.390625 -3.234375 L 16.390625 0 L 2.109375 0 L 2.109375 -3.234375 L 7.234375 -3.234375 L 7.234375 -19.046875 L 2.65625 -19.046875 Z M 2.65625 -22.28125 "></path></g></g></g><g fill="#fff" fill-opacity="1"><g transform="translate(180.622528, 53.220052)"><g><path d="M 6.46875 -10.0625 C 6.5625 -7.84375 7.25 -6.0625 8.53125 -4.71875 C 9.820312 -3.375 11.617188 -2.703125 13.921875 -2.703125 C 14.972656 -2.703125 15.882812 -2.820312 16.65625 -3.0625 C 17.4375 -3.300781 18.101562 -3.628906 18.65625 -4.046875 C 19.21875 -4.460938 19.671875 -4.945312 20.015625 -5.5 C 20.359375 -6.050781 20.632812 -6.644531 20.84375 -7.28125 L 24.171875 -6.375 C 23.535156 -4.3125 22.375 -2.628906 20.6875 -1.328125 C 19 -0.0234375 16.71875 0.625 13.84375 0.625 C 12.25 0.625 10.785156 0.347656 9.453125 -0.203125 C 8.117188 -0.753906 6.972656 -1.539062 6.015625 -2.5625 C 5.054688 -3.582031 4.304688 -4.796875 3.765625 -6.203125 C 3.234375 -7.609375 2.96875 -9.164062 2.96875 -10.875 L 2.96875 -11.953125 C 2.96875 -13.503906 3.242188 -14.953125 3.796875 -16.296875 C 4.347656 -17.648438 5.117188 -18.8125 6.109375 -19.78125 C 7.097656 -20.757812 8.257812 -21.523438 9.59375 -22.078125 C 10.925781 -22.628906 12.367188 -22.90625 13.921875 -22.90625 C 15.753906 -22.90625 17.335938 -22.566406 18.671875 -21.890625 C 20.003906 -21.222656 21.09375 -20.394531 21.9375 -19.40625 C 22.789062 -18.414062 23.421875 -17.335938 23.828125 -16.171875 C 24.234375 -15.003906 24.4375 -13.925781 24.4375 -12.9375 L 24.4375 -10.0625 Z M 13.921875 -19.59375 C 12.929688 -19.59375 12.007812 -19.429688 11.15625 -19.109375 C 10.3125 -18.796875 9.566406 -18.351562 8.921875 -17.78125 C 8.273438 -17.21875 7.75 -16.550781 7.34375 -15.78125 C 6.9375 -15.019531 6.675781 -14.191406 6.5625 -13.296875 L 20.9375 -13.296875 C 20.875 -14.253906 20.640625 -15.125 20.234375 -15.90625 C 19.828125 -16.6875 19.300781 -17.34375 18.65625 -17.875 C 18.019531 -18.414062 17.289062 -18.835938 16.46875 -19.140625 C 15.644531 -19.441406 14.796875 -19.59375 13.921875 -19.59375 Z M 13.921875 -19.59375 "></path></g></g></g><g fill="#fff" fill-opacity="1"><g transform="translate(202.855153, 53.220052)"><g><path d="M 7.40625 0 L 3.90625 0 L 3.90625 -22.28125 L 7.40625 -22.28125 L 7.40625 -18.515625 L 7.953125 -18.515625 C 9.328125 -21.441406 11.722656 -22.90625 15.140625 -22.90625 C 17.710938 -22.90625 19.757812 -22.101562 21.28125 -20.5 C 22.8125 -18.90625 23.578125 -16.503906 23.578125 -13.296875 L 23.578125 0 L 20.078125 0 L 20.078125 -12.578125 C 20.078125 -14.910156 19.550781 -16.660156 18.5 -17.828125 C 17.457031 -19.003906 16.035156 -19.59375 14.234375 -19.59375 C 12.109375 -19.59375 10.4375 -18.863281 9.21875 -17.40625 C 8.007812 -15.957031 7.40625 -14.019531 7.40625 -11.59375 Z M 7.40625 0 "></path></g></g></g><g fill="#fff" fill-opacity="1"><g transform="translate(225.087779, 53.220052)"><g><path d="M 3.140625 -22.28125 L 10.15625 -22.28125 L 10.15625 -31.453125 L 13.65625 -31.453125 L 13.65625 -22.28125 L 22.28125 -22.28125 L 22.28125 -19.046875 L 13.65625 -19.046875 L 13.65625 -4.578125 C 13.65625 -3.679688 14.0625 -3.234375 14.875 -3.234375 L 21.203125 -3.234375 L 21.203125 0 L 13.609375 0 C 12.585938 0 11.753906 -0.328125 11.109375 -0.984375 C 10.472656 -1.648438 10.15625 -2.488281 10.15625 -3.5 L 10.15625 -19.046875 L 3.140625 -19.046875 Z M 3.140625 -22.28125 "></path></g></g></g></svg>