<svg xmlns="http://www.w3.org/2000/svg"  viewBox="0 0 50 50" width="50px" height="50px"><path d="M 22 3 A 1.0001 1.0001 0 1 0 22 5 L 45 5 L 45 45 L 32 45 A 1.0001 1.0001 0 1 0 32 47 L 46 47 A 1.0001 1.0001 0 0 0 47 46 L 47 4 A 1.0001 1.0001 0 0 0 46 3 L 22 3 z M 25.5 7 C 24.083334 7 22.893559 7.5672556 22.126953 8.4296875 C 21.360347 9.2921194 21 10.402778 21 11.5 C 21 12.597222 21.360347 13.707881 22.126953 14.570312 C 22.893559 15.432745 24.083334 16 25.5 16 C 26.916666 16 28.106441 15.432744 28.873047 14.570312 C 29.639653 13.707882 30 12.597222 30 11.5 C 30 10.402778 29.639653 9.2921194 28.873047 8.4296875 C 28.106441 7.5672556 26.916666 7 25.5 7 z M 25.5 9 C 26.416666 9 26.976893 9.3077444 27.376953 9.7578125 C 27.777013 10.207881 28 10.847222 28 11.5 C 28 12.152778 27.777013 12.792119 27.376953 13.242188 C 26.976893 13.692255 26.416666 14 25.5 14 C 24.583334 14 24.023107 13.692256 23.623047 13.242188 C 23.222987 12.792118 23 12.152778 23 11.5 C 23 10.847222 23.222987 10.207881 23.623047 9.7578125 C 24.023107 9.3077444 24.583334 9 25.5 9 z M 37.990234 10.990234 A 1.0001 1.0001 0 0 0 37.292969 12.707031 L 39.585938 15 L 33 15 A 1.0001 1.0001 0 1 0 33 17 L 39.585938 17 L 37.292969 19.292969 A 1.0001 1.0001 0 1 0 38.707031 20.707031 L 42.619141 16.794922 A 1.0001 1.0001 0 0 0 42.623047 15.207031 A 1.0001 1.0001 0 0 0 42.617188 15.203125 L 38.707031 11.292969 A 1.0001 1.0001 0 0 0 37.990234 10.990234 z M 13 16 C 11.927358 16 10.932044 16.576634 10.398438 17.507812 C 10.39749 17.509512 10.395431 17.510119 10.394531 17.511719 L 7.4492188 22.419922 L 7.4453125 22.429688 C 6.7677122 23.615819 6.8813727 25.181666 7.9316406 26.171875 C 8.5198809 26.726543 9.2735758 27 10 27 C 11.041743 27 12.055763 26.450638 12.605469 25.488281 L 12.59375 25.511719 L 14.724609 22 L 15.839844 22 L 13.419922 28.005859 L 13.453125 27.933594 C 13.399838 28.040439 13.362168 28.152092 13.318359 28.261719 A 1.0001 1.0001 0 0 0 13.105469 28.552734 L 10.382812 34 L 6 34 C 4.3550302 34 3 35.35503 3 37 C 3 38.64497 4.3550302 40 6 40 L 12.392578 40 C 13.4823 40 14.49041 39.405166 15.017578 38.451172 L 16.458984 35.84375 L 24.197266 45.929688 C 24.699868 46.603558 25.492111 47 26.332031 47 C 28.353491 47 29.657449 44.69666 28.617188 42.962891 L 28.613281 42.957031 L 21.431641 31.425781 L 24.162109 25.40625 L 26.878906 28.123047 C 27.441098 28.683787 28.206044 29 29.001953 29 L 33 29 C 34.809239 29 36.258164 27.338518 35.960938 25.503906 C 35.714627 23.990639 34.344401 23 32.892578 23 L 30.242188 23 L 26.171875 18.929688 C 24.296626 17.054438 21.751377 16 19.099609 16 L 13 16 z M 13 18 L 19.099609 18 C 21.221842 18 23.257062 18.842999 24.757812 20.34375 L 29.414062 25 L 32.892578 25 C 33.432755 25 33.912638 25.371486 33.986328 25.824219 C 34.095101 26.495607 33.620761 27 33 27 L 29.001953 27 C 28.735862 27 28.48077 26.894332 28.292969 26.707031 L 23.533203 21.949219 L 19.167969 31.574219 L 26.902344 43.992188 C 27.194082 44.478419 26.898571 45 26.332031 45 C 26.121952 45 25.924226 44.90055 25.798828 44.732422 L 25.794922 44.728516 L 17.244141 33.582031 A 1.0001221 1.0001221 0 0 0 16.974609 33.232422 L 15.550781 31.375 L 15.539062 31.359375 C 14.952858 30.656207 14.83247 29.647694 15.242188 28.826172 L 15.259766 28.789062 L 18.802734 20 L 13.597656 20 L 10.876953 24.484375 L 10.869141 24.496094 C 10.680834 24.825736 10.346257 25 10 25 C 9.7584242 25 9.5224472 24.922129 9.3046875 24.716797 C 8.9909554 24.421005 8.9292377 23.863716 9.1816406 23.421875 L 12.126953 18.513672 L 12.132812 18.503906 C 12.31186 18.190032 12.638546 18 13 18 z M 13.59375 32.048828 C 13.713587 32.254371 13.846523 32.454183 14.001953 32.640625 L 15.130859 34.113281 L 13.267578 37.484375 C 13.090746 37.80438 12.758857 38 12.392578 38 L 6 38 C 5.4349698 38 5 37.56503 5 37 C 5 36.43497 5.4349698 36 6 36 L 11 36 A 1.0001 1.0001 0 0 0 11.894531 35.447266 L 13.59375 32.048828 z"/></svg>