<svg xmlns="http://www.w3.org/2000/svg"  viewBox="0 0 50 50" width="50px" height="50px"><path d="M 25 2 C 24.824219 2 24.648438 2.046875 24.492188 2.140625 L 10 10.660156 L 10 12.984375 L 25 4.160156 L 40 12.984375 L 40 10.660156 L 25.507813 2.140625 C 25.351563 2.046875 25.175781 2 25 2 Z M 25 6.480469 L 13 13.539063 L 13 27 C 13 27.554688 13.445313 28 14 28 L 36 28 C 36.554688 28 37 27.554688 37 27 L 37 13.539063 Z M 5 16 C 3.394531 16 2 17 2 19 L 2 31 C 2 34 2.933594 34.839844 4 36 C 4 36 9.96875 43.660156 11 45 L 11 47 C 11 47.550781 11.449219 48 12 48 L 20 48 C 20.550781 48 21 47.550781 21 47 L 21 43 C 21 39.320313 19.171875 36.628906 17.0625 34.507813 L 12.269531 29.394531 C 10.4375 27.5625 9.03125 28.757813 8.757813 29.046875 C 7.855469 29.992188 7.851563 31.464844 8.742188 32.394531 L 13.535156 37.488281 C 13.855469 37.824219 13.855469 38.367188 13.535156 38.703125 C 13.378906 38.871094 13.167969 38.953125 12.957031 38.953125 C 12.75 38.953125 12.539063 38.871094 12.378906 38.703125 L 7.988281 34.011719 C 5 31 7 28 8 28 L 8 19 C 8 17 6.605469 16 5 16 Z M 45 16 C 43.394531 16 42 17 42 19 L 42 28 C 43 28 45 31 42.011719 34.011719 L 37.621094 38.703125 C 37.460938 38.871094 37.25 38.953125 37.042969 38.953125 C 36.832031 38.953125 36.621094 38.871094 36.464844 38.703125 C 36.144531 38.367188 36.144531 37.824219 36.464844 37.488281 L 41.261719 32.394531 C 42.148438 31.464844 42.144531 29.992188 41.246094 29.046875 C 40.96875 28.757813 39.5625 27.5625 37.730469 29.394531 L 32.9375 34.507813 C 30.828125 36.628906 29 39.320313 29 43 L 29 47 C 29 47.550781 29.449219 48 30 48 L 38 48 C 38.550781 48 39 47.550781 39 47 L 39 45 C 40.03125 43.660156 46 36 46 36 C 47.066406 34.839844 48 34 48 31 L 48 19 C 48 17 46.605469 16 45 16 Z"/></svg>